<svg xmlns="http://www.w3.org/2000/svg" width="64" height="64" viewBox="0 0 64 64"><defs><linearGradient id="metal" x2=".9" y2="1"><stop stop-color="#d7d9cb"/><stop offset=".35" stop-color="#8c9f9f"/><stop offset=".5" stop-color="#d2d6c6"/><stop offset=".6" stop-color="#647477"/><stop offset="1" stop-color="#333f47"/></linearGradient><linearGradient id="bronze" x2="1" y2="1"><stop stop-color="#e0c788"/><stop offset=".45" stop-color="#aa8d55"/><stop offset="1" stop-color="#5f4c2f"/></linearGradient><radialGradient id="gem" cx=".32" cy=".25"><stop stop-color="#e4e7c9"/><stop offset=".35" stop-color="#afa374"/><stop offset="1" stop-color="#222831"/></radialGradient><linearGradient id="leather" x2="1" y2="1"><stop stop-color="#8d8170"/><stop offset=".4" stop-color="#554332"/><stop offset="1" stop-color="#26252a"/></linearGradient><linearGradient id="paper" x2="1" y2="1"><stop stop-color="#e2d9b2"/><stop offset=".5" stop-color="#bbb18f"/><stop offset="1" stop-color="#817657"/></linearGradient></defs><ellipse cx="32" cy="55" rx="24" ry="5" fill="#070c0f" opacity=".65"/><path d="M25 6L48 9 42 37 50 49 50 57 35 58 14 55 10 48 22 41Z" fill="url(#leather)" stroke="#a8976e" stroke-width="2"/><path d="M25 7L48 10 45 20 23 18Z" fill="url(#metal)"/><path d="M23 22L44 25M22 31L42 34M19 44L35 48" stroke="#baad82" stroke-width="3"/><path d="M11 51L34 54 50 53 50 58 14 58Z" fill="#202423"/></svg>