<svg xmlns="http://www.w3.org/2000/svg" width="40" height="40" viewBox="0 0 40 40"><defs><linearGradient id="v" x2="1" y2="1"><stop stop-color="#f8646c"/><stop offset=".5" stop-color="#891c2f"/><stop offset="1" stop-color="#3c101c"/></linearGradient></defs><path d="M14 3h12v5l-2 2v7c0 3 9 5 9 12 0 7-5 9-13 9S7 36 7 29c0-7 9-9 9-12v-7l-2-2Z" fill="#302028" stroke="#d4ba8c" stroke-width="1.5"/><path d="M10 27c2-6 18-6 20 0 3 7-1 9-10 9S7 34 10 27" fill="url(#v)"/><path d="M14 4h12v4H14" fill="#ab8251"/><path d="M13 29c0-3 2-4 4-4" fill="none" stroke="#ffb9b1" stroke-width="2"/><path d="M24 25v8m4-8v8" stroke="#ffe7a7" stroke-width="2"/></svg>
